# xmcd CD database file
#
# Track frame offsets:
#	150
#	17437
#	35608
#	48685
#	67189
#	81049
#	100309
#	119820
#	132942
#	155208
#	165404
#	178383
#	193341
#	206930
#	223688
#	243298
#	257293
#	272198
#	292159
#	304157
#	318637
#	333117
#	348526
#
# Disc length: 4799 seconds
#
# Revision: 2
# Processed by: cddbd v1.4PL0 Copyright (c) Steve Scherf et al.
# Submitted via: CDex 1.50Beta7
#
DISCID=7412bd17
DTITLE=Сборник - Мелодии уходящего века 2
DYEAR=2000
DGENRE=Blues
TTITLE0=Эннио Морриконе - Однажды в Америке
TTITLE1=Джеймс Ласт - Концерт для гитары Родриго
TTITLE2=Франциско Гарсия - Целуй меня крепче
TTITLE3=Шэдоус - Привет
TTITLE4=Блонкер - Кафе на обочине
TTITLE5=Кэнди Далфер и Дейв Стюарт - Здесь была Лили
TTITLE6=Джорж Замфир - Одинокий пастух
TTITLE7=Фаусто Папетти - Ветряные мельницы вашего сознания
TTITLE8=Антонио Вентура - Отель Калифорния
TTITLE9=Поль Мариа - Алуэтт
TTITLE10=Шэдоус - Апачи
TTITLE11=Глен Миллер - Лунная серенада
TTITLE12=Кенни Бол - Подмосковные вечера
TTITLE13=Ванесса Мэй - Шторм
TTITLE14=ПарижФранцияТранзит - Сувенир из Рио
TTITLE15=Вентурес - Вибрации
TTITLE16=Фаусто Папетти - Райская тема
TTITLE17=Ричард Клайдерман - Призрак оперы
TTITLE18=Х Манчини - Розовая пантера
TTITLE19=Фаусто Папетти - Я просто позвонил, чтобы сказать, что люблю
TTITLE20=Ричард Клайдерманн - Сочинение
TTITLE21=Чет Аткиннс - Славься Мария
TTITLE22=Эннио Морриконе - До свидания чейены
EXTD=YEAR: 2000
EXTT0=
EXTT1=
EXTT2=
EXTT3=
EXTT4=
EXTT5=
EXTT6=
EXTT7=
EXTT8=
EXTT9=
EXTT10=
EXTT11=
EXTT12=
EXTT13=
EXTT14=
EXTT15=
EXTT16=
EXTT17=
EXTT18=
EXTT19=
EXTT20=
EXTT21=
EXTT22=
PLAYORDER=
